<svg width="14" height="14" viewBox="0 0 14 14" fill="none" xmlns="http://www.w3.org/2000/svg">
<path d="M1.75 3.5H2.91667H12.25" stroke="#6C757D" stroke-linecap="round" stroke-linejoin="round"/>
<path d="M11.0837 3.49996V11.6666C11.0837 11.976 10.9607 12.2728 10.7419 12.4916C10.5232 12.7104 10.2264 12.8333 9.91699 12.8333H4.08366C3.77424 12.8333 3.47749 12.7104 3.2587 12.4916C3.03991 12.2728 2.91699 11.976 2.91699 11.6666V3.49996M4.66699 3.49996V2.33329C4.66699 2.02387 4.78991 1.72713 5.0087 1.50833C5.22749 1.28954 5.52424 1.16663 5.83366 1.16663H8.16699C8.47641 1.16663 8.77316 1.28954 8.99195 1.50833C9.21074 1.72713 9.33366 2.02387 9.33366 2.33329V3.49996" stroke="#6C757D" stroke-linecap="round" stroke-linejoin="round"/>
<path d="M5.83301 6.41663V9.91663" stroke="#6C757D" stroke-linecap="round" stroke-linejoin="round"/>
<path d="M8.16699 6.41663V9.91663" stroke="#6C757D" stroke-linecap="round" stroke-linejoin="round"/>
</svg>
